<svg width="800" height="600" viewBox="0 0 800 600" fill="none" xmlns="http://www.w3.org/2000/svg">
  <!-- 背景 -->
  <rect width="800" height="600" fill="#FAFAFA"/>
  
  <!-- 电商平台界面框架 -->
  <rect x="100" y="50" width="600" height="500" rx="8" fill="white" stroke="#E0E0E0" stroke-width="2"/>
  
  <!-- 顶部导航栏 -->
  <rect x="100" y="50" width="600" height="60" rx="8" fill="#FF6B6B"/>
  <circle cx="140" cy="80" r="15" fill="white"/>
  <rect x="170" y="70" width="80" height="20" rx="4" fill="white" opacity="0.8"/>
  <rect x="270" y="70" width="80" height="20" rx="4" fill="white" opacity="0.6"/>
  <rect x="370" y="70" width="80" height="20" rx="4" fill="white" opacity="0.6"/>
  <rect x="550" y="70" width="120" height="20" rx="10" fill="white" opacity="0.8"/>
  
  <!-- 主横幅 -->
  <rect x="120" y="130" width="560" height="150" rx="8" fill="#F8F9FA"/>
  <rect x="150" y="170" width="250" height="30" rx="4" fill="#212529"/>
  <rect x="150" y="210" width="200" height="20" rx="4" fill="#495057"/>
  <rect x="150" y="240" width="120" height="20" rx="10" fill="#FF6B6B"/>
  
  <!-- 产品网格 -->
  <rect x="120" y="300" width="170" height="230" rx="8" fill="white" stroke="#E0E0E0" stroke-width="1"/>
  <rect x="130" y="310" width="150" height="150" rx="4" fill="#F8F9FA"/>
  <rect x="130" y="470" width="100" height="20" rx="4" fill="#212529"/>
  <rect x="130" y="500" width="60" height="20" rx="4" fill="#FF6B6B"/>
  
  <rect x="310" y="300" width="170" height="230" rx="8" fill="white" stroke="#E0E0E0" stroke-width="1"/>
  <rect x="320" y="310" width="150" height="150" rx="4" fill="#F8F9FA"/>
  <rect x="320" y="470" width="100" height="20" rx="4" fill="#212529"/>
  <rect x="320" y="500" width="60" height="20" rx="4" fill="#FF6B6B"/>
  
  <rect x="500" y="300" width="170" height="230" rx="8" fill="white" stroke="#E0E0E0" stroke-width="1"/>
  <rect x="510" y="310" width="150" height="150" rx="4" fill="#F8F9FA"/>
  <rect x="510" y="470" width="100" height="20" rx="4" fill="#212529"/>
  <rect x="510" y="500" width="60" height="20" rx="4" fill="#FF6B6B"/>
  
  <!-- Shopify - eCommerce 文字 -->
  <text x="400" y="570" font-family="Arial" font-size="24" font-weight="bold" fill="#212529" text-anchor="middle">Shopify - eCommerce</text>
</svg>