<svg width="800" height="600" viewBox="0 0 800 600" fill="none" xmlns="http://www.w3.org/2000/svg">
  <!-- 背景 -->
  <rect width="800" height="600" fill="#F8FAFC"/>
  
  <!-- 应用界面框架 -->
  <rect x="100" y="50" width="600" height="500" rx="12" fill="white" stroke="#E2E8F0" stroke-width="2"/>
  
  <!-- 顶部导航栏 -->
  <rect x="100" y="50" width="600" height="60" rx="12" fill="#7C3AED"/>
  <circle cx="140" cy="80" r="15" fill="white"/>
  <rect x="170" y="70" width="80" height="20" rx="4" fill="white" opacity="0.8"/>
  <rect x="270" y="70" width="80" height="20" rx="4" fill="white" opacity="0.6"/>
  <rect x="370" y="70" width="80" height="20" rx="4" fill="white" opacity="0.6"/>
  <rect x="550" y="70" width="120" height="20" rx="10" fill="white" opacity="0.8"/>
  
  <!-- 侧边栏 -->
  <rect x="100" y="110" width="180" height="440" fill="#F1F5F9"/>
  <rect x="120" y="140" width="140" height="20" rx="4" fill="#94A3B8"/>
  <rect x="120" y="180" width="140" height="20" rx="4" fill="#94A3B8"/>
  <rect x="120" y="220" width="140" height="20" rx="4" fill="#7C3AED"/>
  <rect x="120" y="260" width="140" height="20" rx="4" fill="#94A3B8"/>
  <rect x="120" y="300" width="140" height="20" rx="4" fill="#94A3B8"/>
  
  <!-- 主内容区 -->
  <rect x="300" y="130" width="380" height="100" rx="8" fill="#F1F5F9"/>
  <rect x="320" y="150" width="200" height="24" rx="4" fill="#334155"/>
  <rect x="320" y="190" width="340" height="16" rx="2" fill="#94A3B8"/>
  
  <!-- 产品网格 -->
  <rect x="300" y="250" width="180" height="220" rx="8" fill="white" stroke="#E2E8F0" stroke-width="2"/>
  <rect x="320" y="270" width="140" height="140" rx="4" fill="#F1F5F9"/>
  <rect x="320" y="420" width="100" height="20" rx="4" fill="#334155"/>
  <rect x="320" y="450" width="60" height="16" rx="8" fill="#7C3AED"/>
  
  <rect x="500" y="250" width="180" height="220" rx="8" fill="white" stroke="#E2E8F0" stroke-width="2"/>
  <rect x="520" y="270" width="140" height="140" rx="4" fill="#F1F5F9"/>
  <rect x="520" y="420" width="100" height="20" rx="4" fill="#334155"/>
  <rect x="520" y="450" width="60" height="16" rx="8" fill="#7C3AED"/>
  
  <!-- Brainway - eCommerce 文字 -->
  <text x="400" y="570" font-family="Arial" font-size="24" font-weight="bold" fill="#0F172A" text-anchor="middle">Brainway - eCommerce</text>
</svg>